# This file uses centimeters as units for non-parametric coordinates.

v 0.126768 0.040597 0.172262
v 0.131185 0.049266 0.172262
v 0.138064 0.056145 0.172262
v 0.146733 0.060562 0.172262
v 0.156342 0.062084 0.172262
v 0.165951 0.060562 0.172262
v 0.174619 0.056145 0.172262
v 0.181498 0.049266 0.172262
v 0.185915 0.040597 0.172262
v 0.187437 0.030989 0.172262
v 0.185915 0.021380 0.172262
v 0.181498 0.012711 0.172262
v 0.174619 0.005832 0.172262
v 0.165951 0.001415 0.172262
v 0.156342 -0.000107 0.172262
v 0.146733 0.001415 0.172262
v 0.138064 0.005832 0.172262
v 0.131185 0.012711 0.172262
v 0.126768 0.021380 0.172262
v 0.125246 0.030989 0.172262
v 0.126768 0.040597 0.146558
v 0.131185 0.049266 0.146558
v 0.138064 0.056145 0.146558
v 0.146733 0.060562 0.146558
v 0.156342 0.062084 0.146558
v 0.165951 0.060562 0.146558
v 0.174619 0.056145 0.146558
v 0.181498 0.049266 0.146558
v 0.185915 0.040597 0.146558
v 0.187437 0.030989 0.146558
v 0.185915 0.021380 0.146558
v 0.181498 0.012711 0.146558
v 0.174619 0.005832 0.146558
v 0.165951 0.001415 0.146558
v 0.156342 -0.000107 0.146558
v 0.146733 0.001415 0.146558
v 0.138064 0.005832 0.146558
v 0.131185 0.012711 0.146558
v 0.126768 0.021380 0.146558
v 0.125246 0.030989 0.146558
v 0.156342 0.030989 0.172262
v 0.156342 0.030989 0.146558
v 0.126690 0.040597 -0.145694
v 0.131107 0.049266 -0.145694
v 0.137986 0.056145 -0.145694
v 0.146654 0.060562 -0.145694
v 0.156263 0.062084 -0.145694
v 0.165872 0.060562 -0.145694
v 0.174540 0.056145 -0.145694
v 0.181420 0.049266 -0.145694
v 0.185836 0.040597 -0.145694
v 0.187358 0.030989 -0.145694
v 0.185836 0.021380 -0.145694
v 0.181420 0.012711 -0.145694
v 0.174540 0.005832 -0.145694
v 0.165872 0.001415 -0.145694
v 0.156263 -0.000107 -0.145694
v 0.146654 0.001415 -0.145694
v 0.137986 0.005832 -0.145694
v 0.131107 0.012711 -0.145694
v 0.126690 0.021380 -0.145694
v 0.125168 0.030989 -0.145694
v 0.126690 0.040597 -0.171397
v 0.131107 0.049266 -0.171397
v 0.137986 0.056145 -0.171397
v 0.146654 0.060562 -0.171397
v 0.156263 0.062084 -0.171397
v 0.165872 0.060562 -0.171397
v 0.174540 0.056145 -0.171397
v 0.181420 0.049266 -0.171397
v 0.185836 0.040597 -0.171397
v 0.187358 0.030989 -0.171397
v 0.185836 0.021380 -0.171397
v 0.181420 0.012711 -0.171397
v 0.174540 0.005832 -0.171397
v 0.165872 0.001415 -0.171397
v 0.156263 -0.000107 -0.171397
v 0.146654 0.001415 -0.171397
v 0.137986 0.005832 -0.171397
v 0.131107 0.012711 -0.171397
v 0.126690 0.021380 -0.171397
v 0.125168 0.030989 -0.171397
v 0.156263 0.030989 -0.145694
v 0.156263 0.030989 -0.171397
vt 0.253018 0.826426
vt 0.266463 0.826426
vt 0.266463 0.972351
vt 0.253018 0.972351
vt 0.279908 0.826426
vt 0.279908 0.972351
vt 0.293353 0.826426
vt 0.293353 0.972351
vt 0.306798 0.826426
vt 0.306798 0.972351
vt 0.320243 0.826426
vt 0.320243 0.972351
vt 0.333688 0.826426
vt 0.333688 0.972351
vt 0.347134 0.826426
vt 0.347134 0.972351
vt 0.360579 0.826426
vt 0.360579 0.972351
vt 0.374024 0.826426
vt 0.374024 0.972351
vt 0.387469 0.826426
vt 0.387469 0.972351
vt 0.400914 0.826426
vt 0.400914 0.972351
vt 0.414359 0.826426
vt 0.414359 0.972351
vt 0.427804 0.826426
vt 0.427804 0.972351
vt 0.441249 0.826426
vt 0.441249 0.972351
vt 0.454695 0.826426
vt 0.454695 0.972351
vt 0.468140 0.826426
vt 0.468140 0.972351
vt 0.481585 0.826426
vt 0.481585 0.972351
vt 0.495030 0.826426
vt 0.495030 0.972351
vt 0.508475 0.826426
vt 0.508475 0.972351
vt 0.521920 0.826426
vt 0.521920 0.972351
vt 0.216398 0.853155
vt 0.231133 0.876820
vt 0.132472 0.899656
vt 0.193448 0.834376
vt 0.164529 0.822318
vt 0.132472 0.818164
vt 0.100415 0.822318
vt 0.071496 0.834376
vt 0.048546 0.853156
vt 0.033811 0.876820
vt 0.028734 0.903051
vt 0.033811 0.929283
vt 0.048546 0.952947
vt 0.071496 0.971727
vt 0.100415 0.983785
vt 0.132472 0.987939
vt 0.164529 0.983785
vt 0.193448 0.971727
vt 0.216398 0.952947
vt 0.231133 0.929283
vt 0.236210 0.903051
vt 0.229492 0.928695
vt 0.214993 0.952392
vt 0.132412 0.899026
vt 0.192411 0.971198
vt 0.163955 0.983272
vt 0.132412 0.987433
vt 0.100869 0.983272
vt 0.072414 0.971198
vt 0.049832 0.952392
vt 0.035333 0.928695
vt 0.030337 0.902426
vt 0.035333 0.876158
vt 0.049832 0.852461
vt 0.072414 0.833655
vt 0.100869 0.821580
vt 0.132412 0.817420
vt 0.163955 0.821580
vt 0.192411 0.833655
vt 0.214993 0.852461
vt 0.229492 0.876158
vt 0.234487 0.902426
vt 0.253018 0.826426
vt 0.266463 0.826426
vt 0.253018 0.972351
vt 0.266463 0.972351
vt 0.279908 0.826426
vt 0.279908 0.972351
vt 0.293353 0.826426
vt 0.293353 0.972351
vt 0.306798 0.826426
vt 0.306798 0.972351
vt 0.320243 0.826426
vt 0.320243 0.972351
vt 0.333688 0.826426
vt 0.333688 0.972351
vt 0.347134 0.826426
vt 0.347134 0.972351
vt 0.360579 0.826426
vt 0.360579 0.972351
vt 0.374024 0.826426
vt 0.374024 0.972351
vt 0.387469 0.826426
vt 0.387469 0.972351
vt 0.400914 0.826426
vt 0.400914 0.972351
vt 0.414359 0.826426
vt 0.414359 0.972351
vt 0.427804 0.826426
vt 0.427804 0.972351
vt 0.441249 0.826426
vt 0.441249 0.972351
vt 0.454695 0.826426
vt 0.454695 0.972351
vt 0.468140 0.826426
vt 0.468140 0.972351
vt 0.481585 0.826426
vt 0.481585 0.972351
vt 0.495030 0.826426
vt 0.495030 0.972351
vt 0.508475 0.826426
vt 0.508475 0.972351
vt 0.521920 0.826426
vt 0.521920 0.972351
vt 0.216398 0.853155
vt 0.231133 0.876820
vt 0.132472 0.899656
vt 0.193448 0.834376
vt 0.164529 0.822318
vt 0.132472 0.818164
vt 0.100415 0.822318
vt 0.071496 0.834376
vt 0.048546 0.853156
vt 0.033811 0.876820
vt 0.028734 0.903051
vt 0.033811 0.929283
vt 0.048546 0.952947
vt 0.071496 0.971727
vt 0.100415 0.983785
vt 0.132472 0.987939
vt 0.164529 0.983785
vt 0.193448 0.971727
vt 0.216398 0.952947
vt 0.231133 0.929283
vt 0.236210 0.903051
vt 0.229492 0.928695
vt 0.214993 0.952392
vt 0.132412 0.899026
vt 0.192411 0.971198
vt 0.163955 0.983272
vt 0.132412 0.987433
vt 0.100869 0.983272
vt 0.072414 0.971198
vt 0.049832 0.952392
vt 0.035333 0.928695
vt 0.030337 0.902426
vt 0.035333 0.876158
vt 0.049832 0.852461
vt 0.072414 0.833655
vt 0.100869 0.821580
vt 0.132412 0.817420
vt 0.163955 0.821580
vt 0.192411 0.833655
vt 0.214993 0.852461
vt 0.229492 0.876158
vt 0.234487 0.902426
vn -0.951057 0.309017 0.000000
vn -0.809016 0.587787 0.000000
vn -0.951057 0.309016 0.000000
vn -0.809016 0.587786 0.000000
vn -0.587784 0.809018 0.000000
vn -0.587785 0.809017 0.000000
vn -0.309017 0.951057 0.000000
vn -0.309016 0.951057 0.000000
vn -0.000000 1.000000 0.000000
vn 0.000000 1.000000 0.000000
vn 0.309017 0.951056 0.000000
vn 0.309017 0.951057 0.000000
vn 0.587786 0.809016 0.000000
vn 0.587786 0.809017 0.000000
vn 0.809017 0.587785 0.000000
vn 0.809018 0.587783 0.000000
vn 0.951056 0.309019 0.000000
vn 0.951057 0.309017 0.000000
vn 1.000000 0.000003 0.000000
vn 1.000000 -0.000003 0.000000
vn 0.951057 -0.309017 0.000000
vn 0.951056 -0.309019 0.000000
vn 0.809018 -0.587783 0.000000
vn 0.809017 -0.587785 0.000000
vn 0.587785 -0.809017 0.000000
vn 0.587785 -0.809017 0.000000
vn 0.309017 -0.951057 0.000000
vn 0.309017 -0.951056 0.000000
vn -0.000000 -1.000000 0.000000
vn -0.000000 -1.000000 0.000000
vn -0.309016 -0.951057 0.000000
vn -0.309017 -0.951056 0.000000
vn -0.587785 -0.809017 0.000000
vn -0.587786 -0.809017 0.000000
vn -0.809017 -0.587786 0.000000
vn -0.809018 -0.587784 0.000000
vn -0.951056 -0.309019 0.000000
vn -0.951056 -0.309018 0.000000
vn -1.000000 -0.000001 0.000000
vn -1.000000 -0.000001 0.000000
vn 0.000000 0.000000 1.000000
vn 0.000000 0.000000 1.000000
vn 0.000000 0.000000 1.000000
vn 0.000000 0.000000 1.000000
vn 0.000000 0.000000 1.000000
vn 0.000000 0.000000 1.000000
vn 0.000000 0.000000 1.000000
vn 0.000001 0.000000 1.000000
vn 0.000001 0.000000 1.000000
vn 0.000000 0.000000 1.000000
vn 0.000000 0.000000 1.000000
vn 0.000000 0.000000 1.000000
vn 0.000000 0.000000 1.000000
vn 0.000000 0.000000 1.000000
vn 0.000000 0.000000 1.000000
vn 0.000000 0.000000 1.000000
vn 0.000000 0.000000 1.000000
vn 0.000000 0.000000 1.000000
vn 0.000000 0.000000 1.000000
vn 0.000000 0.000000 1.000000
vn 0.000000 0.000000 1.000000
vn 0.000000 0.000000 -1.000000
vn 0.000000 0.000000 -1.000000
vn -0.000000 0.000000 -1.000000
vn 0.000000 0.000000 -1.000000
vn 0.000000 0.000000 -1.000000
vn 0.000000 0.000000 -1.000000
vn 0.000000 0.000000 -1.000000
vn 0.000000 0.000000 -1.000000
vn 0.000000 0.000000 -1.000000
vn 0.000000 0.000000 -1.000000
vn 0.000000 0.000000 -1.000000
vn 0.000000 0.000000 -1.000000
vn 0.000001 0.000000 -1.000000
vn 0.000001 0.000000 -1.000000
vn 0.000000 0.000000 -1.000000
vn -0.000002 0.000000 -1.000000
vn -0.000002 0.000000 -1.000000
vn 0.000000 0.000000 -1.000000
vn 0.000000 0.000000 -1.000000
vn 0.000000 0.000000 -1.000000
vn 0.000000 0.000000 -1.000000
vn -0.951057 0.309016 0.000000
vn -0.809018 0.587784 0.000000
vn -0.951056 0.309017 0.000000
vn -0.809017 0.587785 0.000000
vn -0.587786 0.809017 0.000000
vn -0.587785 0.809017 0.000000
vn -0.309017 0.951056 0.000000
vn -0.309016 0.951057 0.000000
vn -0.000000 1.000000 0.000000
vn 0.000000 1.000000 0.000000
vn 0.309017 0.951056 0.000000
vn 0.309018 0.951056 0.000000
vn 0.587786 0.809016 0.000000
vn 0.587784 0.809018 0.000000
vn 0.809016 0.587786 0.000000
vn 0.809016 0.587786 0.000000
vn 0.951056 0.309018 0.000000
vn 0.951058 0.309013 0.000000
vn 1.000000 0.000003 0.000000
vn 1.000000 -0.000003 0.000000
vn 0.951057 -0.309017 0.000000
vn 0.951056 -0.309019 0.000000
vn 0.809017 -0.587786 0.000000
vn 0.809017 -0.587786 0.000000
vn 0.587785 -0.809017 0.000000
vn 0.587786 -0.809016 0.000000
vn 0.309017 -0.951056 0.000000
vn 0.309017 -0.951056 0.000000
vn -0.000000 -1.000000 0.000000
vn -0.000000 -1.000000 0.000000
vn -0.309016 -0.951057 0.000000
vn -0.309017 -0.951056 0.000000
vn -0.587785 -0.809017 0.000000
vn -0.587786 -0.809016 0.000000
vn -0.809019 -0.587783 0.000000
vn -0.809018 -0.587784 0.000000
vn -0.951057 -0.309015 0.000000
vn -0.951056 -0.309019 0.000000
vn -1.000000 -0.000002 0.000000
vn -1.000000 -0.000002 0.000000
vn 0.000000 0.000000 1.000000
vn 0.000000 0.000000 1.000000
vn 0.000000 0.000000 1.000000
vn 0.000000 0.000000 1.000000
vn 0.000000 0.000000 1.000000
vn 0.000000 0.000000 1.000000
vn 0.000001 0.000000 1.000000
vn 0.000001 0.000000 1.000000
vn 0.000000 0.000000 1.000000
vn 0.000000 0.000000 1.000000
vn 0.000000 0.000000 1.000000
vn 0.000000 0.000000 1.000000
vn -0.000001 0.000000 1.000000
vn -0.000001 0.000000 1.000000
vn 0.000000 0.000000 1.000000
vn 0.000002 0.000000 1.000000
vn 0.000002 0.000000 1.000000
vn 0.000000 0.000000 1.000000
vn 0.000000 0.000000 1.000000
vn 0.000000 0.000000 1.000000
vn 0.000000 0.000000 1.000000
vn -0.000000 0.000000 -1.000000
vn 0.000000 0.000000 -1.000000
vn -0.000000 0.000000 -1.000000
vn -0.000001 0.000000 -1.000000
vn -0.000000 0.000000 -1.000000
vn 0.000000 0.000000 -1.000000
vn -0.000000 0.000000 -1.000000
vn 0.000000 0.000000 -1.000000
vn -0.000002 0.000000 -1.000000
vn 0.000000 0.000000 -1.000000
vn 0.000000 0.000000 -1.000000
vn 0.000000 0.000000 -1.000000
vn -0.000001 0.000000 -1.000000
vn -0.000001 0.000000 -1.000000
vn 0.000000 0.000000 -1.000000
vn 0.000002 0.000000 -1.000000
vn 0.000002 0.000000 -1.000000
vn 0.000000 0.000000 -1.000000
vn 0.000000 0.000000 -1.000000
vn 0.000000 0.000000 -1.000000
vn 0.000000 0.000000 -1.000000
f 1/1/1 2/2/2 21/4/3
f 21/4/3 2/2/2 22/3/4
f 2/2/2 3/5/5 22/3/4
f 22/3/4 3/5/5 23/6/6
f 3/5/5 4/7/7 23/6/6
f 23/6/6 4/7/7 24/8/8
f 4/7/7 5/9/9 24/8/8
f 24/8/8 5/9/9 25/10/10
f 5/9/9 6/11/11 25/10/10
f 25/10/10 6/11/11 26/12/12
f 6/11/11 7/13/13 26/12/12
f 26/12/12 7/13/13 27/14/14
f 7/13/13 8/15/15 27/14/14
f 27/14/14 8/15/15 28/16/16
f 8/15/15 9/17/17 28/16/16
f 28/16/16 9/17/17 29/18/18
f 9/17/17 10/19/19 29/18/18
f 29/18/18 10/19/19 30/20/20
f 10/19/19 11/21/21 30/20/20
f 30/20/20 11/21/21 31/22/22
f 11/21/21 12/23/23 31/22/22
f 31/22/22 12/23/23 32/24/24
f 12/23/23 13/25/25 32/24/24
f 32/24/24 13/25/25 33/26/26
f 13/25/25 14/27/27 33/26/26
f 33/26/26 14/27/27 34/28/28
f 14/27/27 15/29/29 34/28/28
f 34/28/28 15/29/29 35/30/30
f 15/29/29 16/31/31 35/30/30
f 35/30/30 16/31/31 36/32/32
f 16/31/31 17/33/33 36/32/32
f 36/32/32 17/33/33 37/34/34
f 17/33/33 18/35/35 37/34/34
f 37/34/34 18/35/35 38/36/36
f 18/35/35 19/37/37 38/36/36
f 38/36/36 19/37/37 39/38/38
f 19/37/37 20/39/39 39/38/38
f 39/38/38 20/39/39 40/40/40
f 20/39/39 1/41/1 40/40/40
f 40/40/40 1/41/1 21/42/3
f 2/43/41 1/44/42 41/45/43
f 3/46/44 2/43/41 41/45/43
f 4/47/45 3/46/44 41/45/43
f 5/48/46 4/47/45 41/45/43
f 6/49/47 5/48/46 41/45/43
f 7/50/48 6/49/47 41/45/43
f 8/51/49 7/50/48 41/45/43
f 9/52/50 8/51/49 41/45/43
f 10/53/51 9/52/50 41/45/43
f 11/54/52 10/53/51 41/45/43
f 12/55/53 11/54/52 41/45/43
f 13/56/54 12/55/53 41/45/43
f 14/57/55 13/56/54 41/45/43
f 15/58/56 14/57/55 41/45/43
f 16/59/57 15/58/56 41/45/43
f 17/60/58 16/59/57 41/45/43
f 18/61/59 17/60/58 41/45/43
f 19/62/60 18/61/59 41/45/43
f 20/63/61 19/62/60 41/45/43
f 1/44/42 20/63/61 41/45/43
f 21/64/62 22/65/63 42/66/64
f 22/65/63 23/67/65 42/66/64
f 23/67/65 24/68/66 42/66/64
f 24/68/66 25/69/67 42/66/64
f 25/69/67 26/70/68 42/66/64
f 26/70/68 27/71/69 42/66/64
f 27/71/69 28/72/70 42/66/64
f 28/72/70 29/73/71 42/66/64
f 29/73/71 30/74/72 42/66/64
f 30/74/72 31/75/73 42/66/64
f 31/75/73 32/76/74 42/66/64
f 32/76/74 33/77/75 42/66/64
f 33/77/75 34/78/76 42/66/64
f 34/78/76 35/79/77 42/66/64
f 35/79/77 36/80/78 42/66/64
f 36/80/78 37/81/79 42/66/64
f 37/81/79 38/82/80 42/66/64
f 38/82/80 39/83/81 42/66/64
f 39/83/81 40/84/82 42/66/64
f 40/84/82 21/64/62 42/66/64
f 43/85/83 44/86/84 63/87/85
f 63/87/85 44/86/84 64/88/86
f 44/86/84 45/89/87 64/88/86
f 64/88/86 45/89/87 65/90/88
f 45/89/87 46/91/89 65/90/88
f 65/90/88 46/91/89 66/92/90
f 46/91/89 47/93/91 66/92/90
f 66/92/90 47/93/91 67/94/92
f 47/93/91 48/95/93 67/94/92
f 67/94/92 48/95/93 68/96/94
f 48/95/93 49/97/95 68/96/94
f 68/96/94 49/97/95 69/98/96
f 49/97/95 50/99/97 69/98/96
f 69/98/96 50/99/97 70/100/98
f 50/99/97 51/101/99 70/100/98
f 70/100/98 51/101/99 71/102/100
f 51/101/99 52/103/101 71/102/100
f 71/102/100 52/103/101 72/104/102
f 52/103/101 53/105/103 72/104/102
f 72/104/102 53/105/103 73/106/104
f 53/105/103 54/107/105 73/106/104
f 73/106/104 54/107/105 74/108/106
f 54/107/105 55/109/107 74/108/106
f 74/108/106 55/109/107 75/110/108
f 55/109/107 56/111/109 75/110/108
f 75/110/108 56/111/109 76/112/110
f 56/111/109 57/113/111 76/112/110
f 76/112/110 57/113/111 77/114/112
f 57/113/111 58/115/113 77/114/112
f 77/114/112 58/115/113 78/116/114
f 58/115/113 59/117/115 78/116/114
f 78/116/114 59/117/115 79/118/116
f 59/117/115 60/119/117 79/118/116
f 79/118/116 60/119/117 80/120/118
f 60/119/117 61/121/119 80/120/118
f 80/120/118 61/121/119 81/122/120
f 61/121/119 62/123/121 81/122/120
f 81/122/120 62/123/121 82/124/122
f 62/123/121 43/125/83 82/124/122
f 82/124/122 43/125/83 63/126/85
f 44/127/123 43/128/124 83/129/125
f 45/130/126 44/127/123 83/129/125
f 46/131/127 45/130/126 83/129/125
f 47/132/128 46/131/127 83/129/125
f 48/133/129 47/132/128 83/129/125
f 49/134/130 48/133/129 83/129/125
f 50/135/131 49/134/130 83/129/125
f 51/136/132 50/135/131 83/129/125
f 52/137/133 51/136/132 83/129/125
f 53/138/134 52/137/133 83/129/125
f 54/139/135 53/138/134 83/129/125
f 55/140/136 54/139/135 83/129/125
f 56/141/137 55/140/136 83/129/125
f 57/142/138 56/141/137 83/129/125
f 58/143/139 57/142/138 83/129/125
f 59/144/140 58/143/139 83/129/125
f 60/145/141 59/144/140 83/129/125
f 61/146/142 60/145/141 83/129/125
f 62/147/143 61/146/142 83/129/125
f 43/128/124 62/147/143 83/129/125
f 63/148/144 64/149/145 84/150/146
f 64/149/145 65/151/147 84/150/146
f 65/151/147 66/152/148 84/150/146
f 66/152/148 67/153/149 84/150/146
f 67/153/149 68/154/150 84/150/146
f 68/154/150 69/155/151 84/150/146
f 69/155/151 70/156/152 84/150/146
f 70/156/152 71/157/153 84/150/146
f 71/157/153 72/158/154 84/150/146
f 72/158/154 73/159/155 84/150/146
f 73/159/155 74/160/156 84/150/146
f 74/160/156 75/161/157 84/150/146
f 75/161/157 76/162/158 84/150/146
f 76/162/158 77/163/159 84/150/146
f 77/163/159 78/164/160 84/150/146
f 78/164/160 79/165/161 84/150/146
f 79/165/161 80/166/162 84/150/146
f 80/166/162 81/167/163 84/150/146
f 81/167/163 82/168/164 84/150/146
f 82/168/164 63/148/144 84/150/146
